<svg width="178" height="53" viewBox="0 0 178 53" fill="none" xmlns="http://www.w3.org/2000/svg">
<path d="M175.956 46.2866C175.956 46.9472 175.826 47.6012 175.573 48.2115C175.32 48.8217 174.949 49.376 174.481 49.8429C174.014 50.3097 173.459 50.6798 172.848 50.9321C172.238 51.1845 171.583 51.314 170.923 51.3133H6.2082C4.87318 51.3147 3.59227 50.7859 2.64716 49.8433C1.70205 48.9006 1.17014 47.6213 1.1684 46.2866V6.2007C1.17014 4.86543 1.70184 3.58543 2.64676 2.64174C3.59168 1.69805 4.87257 1.16783 6.2082 1.16748H170.921C171.582 1.16748 172.237 1.29768 172.848 1.55064C173.459 1.8036 174.013 2.17436 174.481 2.64175C174.948 3.10915 175.319 3.66402 175.572 4.27467C175.825 4.88532 175.955 5.53979 175.955 6.2007L175.956 46.2866Z" fill="white"/>
<path d="M170.923 52.4832H6.20818C4.5636 52.4829 2.98631 51.8303 1.82243 50.6687C0.658543 49.5071 0.0031292 47.9314 0 46.2872L0 6.2026C0.00243293 4.55763 0.657414 2.98079 1.82126 1.81799C2.98511 0.655195 4.56278 0.00138841 6.20818 0L170.921 0C172.567 0.0020812 174.144 0.656111 175.307 1.81876C176.471 2.98141 177.126 4.55785 177.129 6.2026V46.2872C177.132 49.7048 174.342 52.4832 170.923 52.4832Z" fill="#A6A6A6"/>
<path d="M175.956 46.2866C175.956 46.9472 175.826 47.6012 175.573 48.2115C175.32 48.8217 174.949 49.376 174.481 49.8429C174.014 50.3097 173.459 50.6798 172.848 50.9321C172.238 51.1845 171.583 51.314 170.923 51.3133H6.2082C4.87318 51.3147 3.59227 50.7859 2.64716 49.8433C1.70205 48.9006 1.17014 47.6213 1.1684 46.2866V6.2007C1.17014 4.86543 1.70184 3.58543 2.64676 2.64174C3.59168 1.69805 4.87257 1.16783 6.2082 1.16748H170.921C171.582 1.16748 172.237 1.29768 172.848 1.55064C173.459 1.8036 174.013 2.17436 174.481 2.64175C174.948 3.10915 175.319 3.66402 175.572 4.27467C175.825 4.88532 175.955 5.53979 175.955 6.2007L175.956 46.2866Z" fill="black"/>
<path d="M39.5517 25.9651C39.5136 21.7351 43.0162 19.6772 43.1763 19.5814C41.1927 16.6901 38.1181 16.295 37.0377 16.2635C34.4555 15.9918 31.9507 17.8083 30.6352 17.8083C29.2936 17.8083 27.2679 16.2898 25.0848 16.3344C22.2754 16.3777 19.6472 18.0038 18.2057 20.5289C15.231 25.6777 17.4496 33.2439 20.2996 37.4056C21.7253 39.4452 23.3913 41.7196 25.5718 41.6396C27.7051 41.553 28.502 40.2812 31.0763 40.2812C33.6271 40.2812 34.3754 41.6396 36.5992 41.5884C38.8888 41.553 40.3302 39.541 41.706 37.4844C43.3535 35.1496 44.0152 32.8475 44.0415 32.7294C43.9889 32.711 39.5963 31.0337 39.5517 25.9651ZM35.3508 13.5258C36.4982 12.0913 37.2832 10.1397 37.0653 8.15918C35.4046 8.23268 33.3278 9.30757 32.1318 10.7106C31.0737 11.9469 30.1285 13.9733 30.3727 15.879C32.2382 16.0181 34.1535 14.9379 35.3508 13.5258Z" fill="white"/>
<path d="M170.923 0H82.6966L117.253 52.4832H170.923C172.568 52.4819 174.145 51.8284 175.309 50.6662C176.472 49.5039 177.128 47.9278 177.131 46.2833V6.2026C177.128 4.55774 176.473 2.9811 175.309 1.81838C174.145 0.655653 172.568 0.00173494 170.923 0Z" fill="url(#paint0_linear_1210_8192)"/>
<path d="M70.4509 41.3471H67.4695L65.8364 36.2168H60.1599L58.6043 41.3471H55.7017L61.327 23.8811H64.8006L70.4509 41.3471ZM65.3441 34.0643L63.8672 29.5036C63.711 29.0377 63.417 27.9405 62.9864 26.2133H62.9338C62.7606 26.9562 62.4836 28.0534 62.1042 29.5036L60.6522 34.0643H65.3441ZM84.889 34.8951C84.889 37.037 84.3074 38.7301 83.1429 39.973C82.1006 41.0794 80.8049 41.6319 79.2597 41.6319C77.5911 41.6319 76.3913 41.0374 75.6627 39.8457V46.4538H72.8638V32.8923C72.8638 31.5471 72.8283 30.1677 72.7601 28.7529H75.2216L75.3778 30.7491H75.4303C76.3637 29.2451 77.7802 28.493 79.6811 28.493C81.1672 28.493 82.4078 29.0797 83.4002 30.2543C84.3914 31.4316 84.889 32.9776 84.889 34.8951ZM82.0376 34.9975C82.0376 33.7717 81.7619 32.7611 81.2079 31.9644C80.6027 31.1363 79.7901 30.7216 78.7713 30.7216C78.0808 30.7216 77.4533 30.9525 76.8927 31.408C76.3309 31.8673 75.9633 32.4671 75.7913 33.21C75.7145 33.4878 75.6709 33.7737 75.6613 34.0617V36.1629C75.6613 37.0777 75.9423 37.8507 76.5042 38.4833C77.066 39.1133 77.7959 39.4296 78.6939 39.4296C79.7481 39.4296 80.5686 39.0214 81.1554 38.2117C81.7435 37.3993 82.0376 36.3283 82.0376 34.9975ZM99.3782 34.8951C99.3782 37.037 98.7966 38.7301 97.6322 39.973C96.5885 41.0794 95.2941 41.6319 93.7477 41.6319C92.0791 41.6319 90.8792 41.0374 90.1506 39.8457V46.4538H87.3517V32.8923C87.3517 31.5471 87.3163 30.1677 87.248 28.7529H89.7095L89.8657 30.7491H89.9183C90.8503 29.2451 92.2668 28.493 94.1691 28.493C95.6538 28.493 96.8944 29.0797 97.8895 30.2543C98.8794 31.4316 99.3782 32.9776 99.3782 34.8951ZM96.5255 34.9975C96.5255 33.7717 96.2485 32.7611 95.6945 31.9644C95.0893 31.1363 94.2793 30.7216 93.2606 30.7216C92.5701 30.7216 91.9426 30.9525 91.3794 31.408C90.8175 31.8673 90.4512 32.4671 90.2793 33.21C90.1939 33.5564 90.148 33.8386 90.148 34.0617V36.1629C90.148 37.0777 90.4302 37.8507 90.9895 38.4833C91.5514 39.112 92.2813 39.4296 93.1818 39.4296C94.2373 39.4296 95.0578 39.0214 95.6433 38.2117C96.2315 37.3993 96.5255 36.3283 96.5255 34.9975ZM115.578 36.4477C115.578 37.9347 115.058 39.1435 114.025 40.0766C112.888 41.0951 111.301 41.6056 109.266 41.6056C107.386 41.6056 105.879 41.2434 104.742 40.5176L105.389 38.1854C106.617 38.9125 107.965 39.2747 109.433 39.2747C110.488 39.2747 111.309 39.0359 111.894 38.5621C112.481 38.087 112.778 37.4518 112.778 36.659C112.778 35.949 112.532 35.3545 112.051 34.8702C111.566 34.3872 110.765 33.937 109.64 33.5236C106.581 32.3831 105.051 30.715 105.051 28.5206C105.051 27.0874 105.592 25.9141 106.671 24.9967C107.75 24.0806 109.181 23.6226 110.961 23.6226C112.551 23.6226 113.875 23.8995 114.927 24.452L114.225 26.733C113.235 26.1976 112.118 25.9298 110.868 25.9298C109.881 25.9298 109.106 26.1726 108.552 26.6556C108.086 27.0874 107.85 27.6137 107.85 28.2384C107.85 28.9275 108.119 29.4997 108.654 29.9485C109.119 30.3619 109.967 30.8121 111.193 31.2951C112.698 31.9014 113.803 32.6075 114.511 33.4186C115.224 34.2297 115.578 35.2416 115.578 36.4477ZM124.856 30.8528H121.77V36.9675C121.77 38.5227 122.314 39.2984 123.404 39.2984C123.904 39.2984 124.319 39.2564 124.647 39.1684L124.724 41.2933C124.173 41.4993 123.447 41.603 122.548 41.603C121.442 41.603 120.578 41.2657 119.955 40.5911C119.334 39.9165 119.021 38.7865 119.021 37.1958V30.8476H117.184V28.7476H119.021V26.4417L121.77 25.6122V28.7476H124.856V30.8528ZM138.747 34.9463C138.747 36.8822 138.193 38.4715 137.088 39.7144C135.932 40.994 134.393 41.6319 132.475 41.6319C130.624 41.6319 129.152 41.019 128.055 39.7945C126.957 38.5673 126.409 37.0213 126.409 35.1563C126.409 33.2047 126.976 31.6061 128.106 30.3633C129.239 29.1191 130.764 28.497 132.682 28.497C134.531 28.497 136.016 29.1112 137.139 30.337C138.213 31.5261 138.747 33.0616 138.747 34.9463ZM135.846 35.0106C135.846 33.857 135.597 32.8674 135.097 32.0393C134.51 31.0392 133.67 30.5391 132.581 30.5391C131.46 30.5391 130.6 31.0392 130.015 32.0393C129.513 32.8674 129.264 33.874 129.264 35.0631C129.264 36.2181 129.513 37.2103 130.015 38.0358C130.62 39.0359 131.464 39.5359 132.558 39.5359C133.628 39.5359 134.466 39.0254 135.073 38.0109C135.588 37.163 135.846 36.1669 135.846 35.0106ZM147.849 31.2137C147.558 31.1612 147.263 31.1353 146.967 31.1363C145.982 31.1363 145.221 31.5064 144.685 32.2519C144.22 32.9081 143.987 33.7376 143.987 34.7389V41.3471H141.188V32.7191C141.19 31.397 141.163 30.0751 141.107 28.7542H143.544L143.647 31.1639H143.724C144.021 30.3357 144.486 29.6677 145.124 29.1676C145.708 28.7307 146.417 28.4941 147.147 28.493C147.405 28.493 147.639 28.5114 147.846 28.5442L147.849 31.2137ZM160.366 34.4541C160.374 34.8795 160.339 35.3046 160.264 35.7233H151.867C151.899 36.9675 152.306 37.9203 153.086 38.5765C153.793 39.1619 154.708 39.4559 155.832 39.4559C157.075 39.4559 158.21 39.259 159.23 38.8613L159.668 40.8024C158.476 41.3222 157.069 41.5807 155.445 41.5807C153.491 41.5807 151.958 41.0059 150.842 39.8588C149.729 38.7104 149.171 37.167 149.171 35.2337C149.171 33.3359 149.69 31.7544 150.728 30.4932C151.815 29.1466 153.284 28.4733 155.132 28.4733C156.948 28.4733 158.322 29.1466 159.256 30.4932C159.995 31.5602 160.366 32.8832 160.366 34.4541ZM157.698 33.7284C157.717 32.8976 157.533 32.1823 157.154 31.5773C156.67 30.7977 155.924 30.4092 154.925 30.4092C154.01 30.4092 153.264 30.7885 152.697 31.5497C152.231 32.1547 151.954 32.8818 151.869 33.7257L157.698 33.7284Z" fill="white"/>
<path d="M59.3525 17.7058C58.574 17.7058 57.9006 17.6678 57.34 17.6035V9.1592C58.124 9.03812 58.9163 8.97844 59.7096 8.98071C62.9194 8.98071 64.3976 10.5596 64.3976 13.1333C64.3976 16.102 62.6516 17.7058 59.3525 17.7058ZM59.8225 10.0635C59.3893 10.0635 59.0204 10.0897 58.7145 10.1527V16.5719C58.8799 16.5981 59.1976 16.6099 59.644 16.6099C61.7471 16.6099 62.9443 15.413 62.9443 13.1713C62.9443 11.1725 61.8613 10.0635 59.8225 10.0635ZM69.0042 17.7701C67.1951 17.7701 66.0228 16.4196 66.0228 14.5861C66.0228 12.6752 67.2201 11.3129 69.1066 11.3129C70.8893 11.3129 72.0879 12.5991 72.0879 14.4851C72.0879 16.4196 70.8526 17.7701 69.0042 17.7701ZM69.0567 12.3182C68.0629 12.3182 67.4262 13.2475 67.4262 14.5468C67.4262 15.8212 68.076 16.7504 69.0435 16.7504C70.0111 16.7504 70.6609 15.7568 70.6609 14.5205C70.6609 13.2606 70.0242 12.3182 69.0567 12.3182ZM82.4038 11.4402L80.4674 17.6297H79.2058L78.4037 14.9418C78.2043 14.2843 78.0382 13.6172 77.9062 12.943H77.8799C77.7788 13.6176 77.5872 14.2935 77.3837 14.9418L76.5304 17.6297H75.2557L73.4335 11.4402H74.8474L75.5484 14.3827C75.7138 15.0836 75.853 15.745 75.9685 16.3698H75.9948C76.0959 15.8487 76.2613 15.1977 76.5041 14.3958L77.3837 11.4415H78.5048L79.3463 14.3328C79.5498 15.0337 79.7152 15.7214 79.8439 16.3711H79.8806C79.9699 15.7345 80.1104 15.0586 80.3007 14.3328L81.0529 11.4415L82.4038 11.4402ZM89.5322 17.6297H88.1565V14.0756C88.1565 12.981 87.7364 12.4324 86.908 12.4324C86.0927 12.4324 85.5322 13.1333 85.5322 13.9483V17.6297H84.1564V13.2094C84.1564 12.6621 84.1433 12.0754 84.1052 11.4389H85.3156L85.3799 12.3944H85.418C85.7882 11.7329 86.5391 11.3129 87.3806 11.3129C88.6802 11.3129 89.5336 12.3064 89.5336 13.9234L89.5322 17.6297ZM93.3262 17.6297H91.9491V8.6001H93.3262V17.6297ZM98.3424 17.7701C96.5347 17.7701 95.361 16.4196 95.361 14.5861C95.361 12.6752 96.5583 11.3129 98.4435 11.3129C100.228 11.3129 101.425 12.5991 101.425 14.4851C101.426 16.4196 100.189 17.7701 98.3424 17.7701ZM98.3936 12.3182C97.3998 12.3182 96.7631 13.2475 96.7631 14.5468C96.7631 15.8212 97.4142 16.7504 98.3791 16.7504C99.348 16.7504 99.9965 15.7568 99.9965 14.5205C99.9978 13.2606 99.3624 12.3182 98.3936 12.3182ZM106.849 17.6297L106.749 16.917H106.713C106.293 17.4906 105.68 17.7701 104.902 17.7701C103.793 17.7701 103.005 16.9932 103.005 15.9485C103.005 14.4208 104.33 13.6307 106.623 13.6307V13.5165C106.623 12.7015 106.192 12.2933 105.338 12.2933C104.728 12.2933 104.192 12.4469 103.721 12.7527L103.441 11.8484C104.014 11.4914 104.728 11.3129 105.567 11.3129C107.184 11.3129 108.001 12.166 108.001 13.8735V16.1532C108.001 16.7779 108.028 17.2622 108.09 17.631L106.849 17.6297ZM106.66 14.5468C105.132 14.5468 104.365 14.9169 104.365 15.7949C104.365 16.4446 104.761 16.7622 105.309 16.7622C106.009 16.7622 106.66 16.228 106.66 15.5022V14.5468ZM114.681 17.6297L114.617 16.6362H114.579C114.184 17.3869 113.52 17.7701 112.591 17.7701C111.099 17.7701 109.993 16.4577 109.993 14.6111C109.993 12.6752 111.139 11.3116 112.704 11.3116C113.533 11.3116 114.119 11.5912 114.45 12.1529H114.478V8.6001H115.855V15.9616C115.855 16.5601 115.869 17.1205 115.906 17.6297H114.681ZM114.478 13.9877C114.478 13.1215 113.904 12.3826 113.029 12.3826C112.009 12.3826 111.385 13.2868 111.385 14.5599C111.385 15.808 112.032 16.6624 113.001 16.6624C113.866 16.6624 114.478 15.9104 114.478 15.0193V13.9877ZM124.586 17.7701C122.779 17.7701 121.606 16.4196 121.606 14.5861C121.606 12.6752 122.804 11.3129 124.689 11.3129C126.473 11.3129 127.67 12.5991 127.67 14.4851C127.671 16.4196 126.436 17.7701 124.586 17.7701ZM124.638 12.3182C123.645 12.3182 123.008 13.2475 123.008 14.5468C123.008 15.8212 123.658 16.7504 124.624 16.7504C125.593 16.7504 126.242 15.7568 126.242 14.5205C126.244 13.2606 125.608 12.3182 124.638 12.3182ZM135.069 17.6297H133.692V14.0756C133.692 12.981 133.272 12.4324 132.443 12.4324C131.628 12.4324 131.069 13.1333 131.069 13.9483V17.6297H129.692V13.2094C129.692 12.6621 129.679 12.0754 129.641 11.4389H130.851L130.915 12.3944H130.953C131.322 11.7329 132.075 11.3116 132.915 11.3116C134.214 11.3116 135.069 12.3051 135.069 13.9221V17.6297ZM144.325 12.4718H142.812V15.4773C142.812 16.2424 143.077 16.6244 143.613 16.6244C143.855 16.6244 144.059 16.5981 144.223 16.5601L144.261 17.6048C143.995 17.7071 143.638 17.7583 143.194 17.7583C142.109 17.7583 141.461 17.1598 141.461 15.5928V12.4718H140.558V11.4402H141.461V10.3063L142.812 9.8981V11.4389H144.325V12.4718ZM151.609 17.6297H150.234V14.1019C150.234 12.9942 149.816 12.4337 148.986 12.4337C148.273 12.4337 147.609 12.918 147.609 13.8984V17.6297H146.234V8.6001H147.609V12.3182H147.636C148.07 11.6437 148.697 11.3116 149.498 11.3116C150.808 11.3116 151.609 12.3301 151.609 13.9483V17.6297ZM159.071 14.8657H154.942C154.968 16.0377 155.744 16.6992 156.893 16.6992C157.503 16.6992 158.065 16.5968 158.561 16.4065L158.775 17.362C158.19 17.6166 157.501 17.7439 156.699 17.7439C154.762 17.7439 153.616 16.5207 153.616 14.6242C153.616 12.7264 154.79 11.2998 156.544 11.2998C158.126 11.2998 159.118 12.4718 159.118 14.2423C159.127 14.4512 159.111 14.6605 159.071 14.8657ZM157.809 13.8853C157.809 12.9298 157.327 12.2552 156.448 12.2552C155.657 12.2552 155.033 12.943 154.943 13.8853H157.809Z" fill="white"/>
<defs>
<linearGradient id="paint0_linear_1210_8192" x1="129.912" y1="52.6226" x2="129.912" y2="-136.657" gradientUnits="userSpaceOnUse">
<stop stop-color="#1A1A1A" stop-opacity="0.1"/>
<stop offset="0.123" stop-color="#212121" stop-opacity="0.151"/>
<stop offset="0.308" stop-color="#353535" stop-opacity="0.227"/>
<stop offset="0.532" stop-color="#575757" stop-opacity="0.318"/>
<stop offset="0.783" stop-color="#858585" stop-opacity="0.421"/>
<stop offset="1" stop-color="#B3B3B3" stop-opacity="0.51"/>
</linearGradient>
</defs>
</svg>
