<svg width="61" height="61" viewBox="0 0 61 61" fill="none" xmlns="http://www.w3.org/2000/svg">
<circle cx="30.5032" cy="30.5032" r="22.3299" transform="rotate(-30 30.5032 30.5032)" fill="#FFD02B"/>
<g clip-path="url(#clip0_1221_10637)">
<path d="M39.0514 30.5031L37.3852 27.6171L35.8193 30.3265L37.4869 33.2148L39.0514 30.5031Z" fill="white"/>
<path d="M34.778 23.0992L31.5302 23.0981L28.8796 27.6908L23.577 27.6899L21.954 30.5032L23.4308 33.061L28.8231 33.0625L31.6206 37.9079L34.7788 37.9084L36.3574 35.1731L33.5599 30.3277L36.2548 25.6571L34.778 23.0992Z" fill="white"/>
<path d="M38.9659 20.9623L37.4891 18.4044L34.2413 18.4033L32.6603 21.1399L35.9081 21.141L37.3849 23.6989L38.9659 20.9623Z" fill="white"/>
<path d="M21.1702 33.0605L19.6934 30.5026L21.3164 27.6893L18.1559 27.6902L16.533 30.5034L18.0097 33.0613L21.1702 33.0605Z" fill="white"/>
<path d="M26.2284 37.9068L29.359 37.9077L27.6915 35.0194L24.5621 35.0208L26.2284 37.9068Z" fill="white"/>
<path d="M37.4889 37.1329L35.9102 39.8682L32.7521 39.8677L34.3316 42.6035L37.4897 42.604L39.0684 39.8687L37.4889 37.1329Z" fill="white"/>
<path d="M29.27 23.0978L26.229 23.0974L24.7088 25.7312L27.7498 25.7315L29.27 23.0978Z" fill="white"/>
<path d="M38.5157 25.6584L41.3132 30.5038L38.6183 35.1744L40.1979 37.9102L44.4737 30.5029L40.0967 22.9217L38.5157 25.6584Z" fill="white"/>
<path d="M30.4912 39.8666L25.0989 39.8651L22.3014 35.0197L19.1409 35.0206L23.5179 42.6018L32.0707 42.6024L30.4912 39.8666Z" fill="white"/>
<path d="M22.4458 25.7308L25.0977 21.1404L30.399 21.139L31.9799 18.4024L23.5168 18.4023L19.2853 25.7316L22.4458 25.7308Z" fill="white"/>
</g>
<defs>
<clipPath id="clip0_1221_10637">
<rect width="34.1516" height="34.1516" fill="white" transform="translate(7.17725 24.253) rotate(-30)"/>
</clipPath>
</defs>
</svg>
