<svg width="76" height="77" viewBox="0 0 76 77" fill="none" xmlns="http://www.w3.org/2000/svg">
<path d="M74.8661 47.2004C69.79 67.5609 49.1683 79.952 28.8054 74.8746C8.45091 69.7985 -3.94019 49.1755 1.13835 28.8163C6.21213 8.45345 26.8339 -3.93884 47.1908 1.13732C67.5524 6.21348 79.9423 26.8388 74.8661 47.2004Z" fill="#FE8701"/>
<path d="M54.7527 32.5918C55.5093 27.5347 51.6588 24.8161 46.3938 23.0025L48.1017 16.1519L43.9318 15.1127L42.269 21.7827C41.1728 21.5096 40.0469 21.2518 38.9281 20.9965L40.6027 14.2825L36.4351 13.2433L34.726 20.0915C33.8186 19.8848 32.9279 19.6805 32.0633 19.4656L32.068 19.4442L26.3172 18.0083L25.2079 22.4621C25.2079 22.4621 28.3019 23.1711 28.2365 23.2151C29.9254 23.6367 30.2307 24.7543 30.1796 25.6403L28.2342 33.4446C28.3506 33.4743 28.5014 33.517 28.6677 33.5835C28.5287 33.5491 28.3802 33.5111 28.227 33.4743L25.5001 44.4069C25.2935 44.92 24.7697 45.6896 23.5891 45.3974C23.6307 45.458 20.5582 44.6409 20.5582 44.6409L18.488 49.4142L23.9146 50.7669C24.9241 51.0199 25.9134 51.2848 26.8873 51.5342L25.1616 58.4631L29.3268 59.5023L31.0359 52.647C32.1737 52.9558 33.2783 53.2409 34.359 53.5093L32.6559 60.3325L36.8259 61.3718L38.5516 54.4559C45.6622 55.8015 51.0092 55.2588 53.2598 48.8275C55.0734 43.6492 53.1696 40.6621 49.4284 38.7143C52.1529 38.0861 54.2052 36.2938 54.7527 32.5918ZM45.2252 45.9521C43.9365 51.1304 35.2177 48.331 32.3911 47.6291L34.6809 38.4495C37.5076 39.155 46.572 40.5517 45.2252 45.9521ZM46.515 32.517C45.3392 37.2274 38.0824 34.8342 35.7284 34.2475L37.8045 25.9218C40.1585 26.5085 47.7395 27.6036 46.515 32.517Z" fill="white"/>
</svg>
