<svg width="72" height="72" viewBox="0 0 72 72" fill="none" xmlns="http://www.w3.org/2000/svg">
<path d="M25.4995 61.0047C39.5824 66.5307 55.4787 59.594 61.0047 45.511C66.5307 31.4281 59.594 15.5318 45.511 10.0058C31.4281 4.47974 15.5318 11.4165 10.0058 25.4995C4.47974 39.5824 11.4165 55.4787 25.4995 61.0047Z" fill="#627EEA"/>
<path d="M43.8032 16.6921L38.2562 30.8284L48.1094 40.8557L43.8032 16.6921Z" fill="white" fill-opacity="0.602"/>
<path d="M43.8032 16.6921L24.2116 31.4784L38.2562 30.8284L43.8032 16.6921Z" fill="white"/>
<path d="M32.5667 45.3279L28.7977 54.9333L47.2444 43.0836L32.5667 45.3279Z" fill="white" fill-opacity="0.602"/>
<path d="M28.7975 54.9333L32.5672 45.3263L23.3385 33.7031L28.7975 54.9333Z" fill="white"/>
<path d="M33.4391 43.1052L48.1094 40.8561L38.255 30.832L33.4391 43.1052Z" fill="white" fill-opacity="0.2"/>
<path d="M24.2113 31.4788L33.4388 43.1052L38.2547 30.832L24.2113 31.4788Z" fill="white" fill-opacity="0.602"/>
</svg>
