<svg width="176" height="53" viewBox="0 0 176 53" fill="none" xmlns="http://www.w3.org/2000/svg">
<path d="M169.316 52.0973H6.51216C2.86535 52.0973 0 49.2319 0 45.5851V6.51216C0 2.86535 2.86535 0 6.51216 0H169.316C172.963 0 175.828 2.86535 175.828 6.51216V45.5851C175.828 49.2319 172.963 52.0973 169.316 52.0973Z" fill="black"/>
<path d="M169.316 1.04195C172.312 1.04195 174.786 3.51657 174.786 6.51216V45.5851C174.786 48.5807 172.312 51.0554 169.316 51.0554H6.51216C3.51657 51.0554 1.04195 48.5807 1.04195 45.5851V6.51216C1.04195 3.51657 3.51657 1.04195 6.51216 1.04195H169.316ZM169.316 0H6.51216C2.86535 0 0 2.99559 0 6.51216V45.5851C0 49.2319 2.86535 52.0973 6.51216 52.0973H169.316C172.963 52.0973 175.828 49.2319 175.828 45.5851V6.51216C175.828 2.99559 172.963 0 169.316 0Z" fill="#A6A6A6"/>
<path d="M61.7353 13.2848C61.7353 14.3268 61.4748 15.2385 60.8236 15.8897C60.0421 16.6712 59.1304 17.0619 57.9583 17.0619C56.7861 17.0619 55.8744 16.6712 55.0929 15.8897C54.3114 15.1082 53.9207 14.1965 53.9207 13.0244C53.9207 11.8522 54.3114 10.9405 55.0929 10.159C55.8744 9.37755 56.7861 8.98682 57.9583 8.98682C58.4792 8.98682 59.0002 9.11706 59.5212 9.37755C60.0421 9.63803 60.4329 9.89852 60.6934 10.2892L60.0421 10.9405C59.5212 10.2892 58.87 10.0288 57.9583 10.0288C57.1768 10.0288 56.3953 10.2892 55.8744 10.9405C55.2231 11.4614 54.9627 12.2429 54.9627 13.1546C54.9627 14.0663 55.2231 14.8478 55.8744 15.3687C56.5256 15.8897 57.1768 16.2804 57.9583 16.2804C58.87 16.2804 59.5212 16.02 60.1724 15.3687C60.5631 14.978 60.8236 14.457 60.8236 13.8058H57.9583V12.7639H61.7353V13.2848ZM67.7265 10.0288H64.2099V12.5034H67.466V13.4151H64.2099V15.8897H67.7265V16.9317H63.168V9.11706H67.7265V10.0288ZM72.0245 16.9317H70.9826V10.0288H68.7684V9.11706H74.2387V10.0288H72.0245V16.9317ZM78.0157 16.9317V9.11706H79.0577V16.9317H78.0157ZM83.4859 16.9317H82.444V10.0288H80.2298V9.11706H85.5698V10.0288H83.3557V16.9317H83.4859ZM95.859 15.8897C95.0776 16.6712 94.1659 17.0619 92.9937 17.0619C91.8215 17.0619 90.9098 16.6712 90.1283 15.8897C89.3469 15.1082 88.9561 14.1965 88.9561 13.0244C88.9561 11.8522 89.3469 10.9405 90.1283 10.159C90.9098 9.37755 91.8215 8.98682 92.9937 8.98682C94.1659 8.98682 95.0776 9.37755 95.859 10.159C96.6405 10.9405 97.0312 11.8522 97.0312 13.0244C97.0312 14.1965 96.6405 15.1082 95.859 15.8897ZM90.9098 15.2385C91.4308 15.7595 92.2122 16.1502 92.9937 16.1502C93.7751 16.1502 94.5566 15.8897 95.0776 15.2385C95.5985 14.7175 95.9893 13.9361 95.9893 13.0244C95.9893 12.1127 95.7288 11.3312 95.0776 10.8102C94.5566 10.2892 93.7751 9.89852 92.9937 9.89852C92.2122 9.89852 91.4308 10.159 90.9098 10.8102C90.3888 11.3312 89.9981 12.1127 89.9981 13.0244C89.9981 13.9361 90.2586 14.7175 90.9098 15.2385ZM98.4639 16.9317V9.11706H99.6361L103.413 15.2385V9.11706H104.455V16.9317H103.413L99.3756 10.5497V16.9317H98.4639Z" fill="white" stroke="white" stroke-width="0.260486" stroke-miterlimit="10"/>
<path d="M88.6957 28.3929C85.5698 28.3929 83.0952 30.7373 83.0952 33.9934C83.0952 37.1192 85.5698 39.5938 88.6957 39.5938C91.8215 39.5938 94.2961 37.2495 94.2961 33.9934C94.2961 30.6071 91.8215 28.3929 88.6957 28.3929ZM88.6957 37.2495C87.0025 37.2495 85.5698 35.8168 85.5698 33.8631C85.5698 31.9095 87.0025 30.4768 88.6957 30.4768C90.3888 30.4768 91.8215 31.7792 91.8215 33.8631C91.8215 35.8168 90.3888 37.2495 88.6957 37.2495ZM76.5831 28.3929C73.4572 28.3929 70.9826 30.7373 70.9826 33.9934C70.9826 37.1192 73.4572 39.5938 76.5831 39.5938C79.7089 39.5938 82.1835 37.2495 82.1835 33.9934C82.1835 30.6071 79.7089 28.3929 76.5831 28.3929ZM76.5831 37.2495C74.8899 37.2495 73.4572 35.8168 73.4572 33.8631C73.4572 31.9095 74.8899 30.4768 76.5831 30.4768C78.2762 30.4768 79.7089 31.7792 79.7089 33.8631C79.7089 35.8168 78.2762 37.2495 76.5831 37.2495ZM62.1261 30.0861V32.4305H67.7265C67.5963 33.7329 67.0753 34.7748 66.4241 35.4261C65.6426 36.2075 64.3402 37.1192 62.1261 37.1192C58.6095 37.1192 56.0046 34.3841 56.0046 30.8675C56.0046 27.351 58.7397 24.6159 62.1261 24.6159C63.9495 24.6159 65.3821 25.3973 66.4241 26.309L68.1172 24.6159C66.6846 23.3134 64.8612 22.2715 62.2563 22.2715C57.5675 22.2715 53.53 26.1788 53.53 30.8675C53.53 35.5563 57.5675 39.4636 62.2563 39.4636C64.8612 39.4636 66.6846 38.6821 68.2475 36.989C69.8104 35.4261 70.3314 33.2119 70.3314 31.5188C70.3314 30.9978 70.3314 30.4768 70.2011 30.0861H62.1261ZM121.256 31.9095C120.736 30.6071 119.433 28.3929 116.568 28.3929C113.702 28.3929 111.358 30.6071 111.358 33.9934C111.358 37.1192 113.702 39.5938 116.828 39.5938C119.303 39.5938 120.866 38.0309 121.387 37.1192L119.563 35.8168C118.912 36.7285 118.131 37.3797 116.828 37.3797C115.526 37.3797 114.744 36.8587 114.093 35.6865L121.517 32.5607L121.256 31.9095ZM113.702 33.7329C113.702 31.649 115.396 30.4768 116.568 30.4768C117.479 30.4768 118.391 30.9978 118.652 31.649L113.702 33.7329ZM107.581 39.0729H110.056V22.7925H107.581V39.0729ZM103.674 29.5651C103.022 28.9139 101.98 28.2627 100.678 28.2627C97.943 28.2627 95.3381 30.7373 95.3381 33.8631C95.3381 36.989 97.8127 39.3333 100.678 39.3333C101.98 39.3333 103.022 38.6821 103.543 38.0309H103.674V38.8124C103.674 40.8963 102.501 42.0685 100.678 42.0685C99.2454 42.0685 98.2034 41.0265 97.9429 40.1148L95.8591 41.0265C96.5103 42.4592 98.0732 44.2826 100.808 44.2826C103.674 44.2826 106.018 42.5894 106.018 38.5519V28.6534H103.674V29.5651ZM100.808 37.2495C99.1151 37.2495 97.6825 35.8168 97.6825 33.8631C97.6825 31.9095 99.1151 30.4768 100.808 30.4768C102.501 30.4768 103.804 31.9095 103.804 33.8631C103.804 35.8168 102.501 37.2495 100.808 37.2495ZM132.588 22.7925H126.727V39.0729H129.201V32.9514H132.588C135.323 32.9514 137.928 30.9978 137.928 27.8719C137.928 24.7461 135.323 22.7925 132.588 22.7925ZM132.718 30.6071H129.201V25.0066H132.718C134.541 25.0066 135.583 26.5695 135.583 27.7417C135.453 29.1744 134.411 30.6071 132.718 30.6071ZM147.696 28.2627C145.872 28.2627 144.049 29.0441 143.398 30.7373L145.612 31.649C146.133 30.7373 146.914 30.4768 147.826 30.4768C149.129 30.4768 150.301 31.2583 150.431 32.5607V32.6909C150.04 32.4305 148.998 32.0397 147.956 32.0397C145.612 32.0397 143.268 33.3422 143.268 35.6865C143.268 37.9007 145.221 39.3333 147.305 39.3333C148.998 39.3333 149.78 38.5519 150.431 37.7704H150.561V39.0729H152.906V32.8212C152.645 29.9558 150.431 28.2627 147.696 28.2627ZM147.435 37.2495C146.654 37.2495 145.482 36.8587 145.482 35.8168C145.482 34.5143 146.914 34.1236 148.087 34.1236C149.129 34.1236 149.65 34.3841 150.301 34.6446C150.04 36.2075 148.738 37.2495 147.435 37.2495ZM161.111 28.6534L158.376 35.6865H158.246L155.38 28.6534H152.775L157.073 38.5519L154.599 44.0221H157.073L163.716 28.6534H161.111ZM139.23 39.0729H141.705V22.7925H139.23V39.0729Z" fill="white"/>
<path d="M13.5453 9.76758C13.1546 10.1583 13.0243 10.8095 13.0243 11.591V40.3747C13.0243 41.1562 13.2848 41.8074 13.6755 42.1982L13.8058 42.3284L29.9559 26.1782V25.9177L13.5453 9.76758Z" fill="url(#paint0_linear_1210_8202)"/>
<path d="M35.1657 31.6488L29.8257 26.3088V25.9181L35.1657 20.5781L35.2959 20.7084L41.6778 24.3552C43.5013 25.3971 43.5013 27.0903 41.6778 28.1322L35.1657 31.6488Z" fill="url(#paint1_linear_1210_8202)"/>
<path d="M35.2959 31.5186L29.8257 26.0483L13.5453 42.3287C14.1965 42.98 15.1082 42.98 16.2804 42.459L35.2959 31.5186Z" fill="url(#paint2_linear_1210_8202)"/>
<path d="M35.2959 20.5782L16.2804 9.76799C15.1082 9.11677 14.1965 9.24701 13.5453 9.89823L29.8257 26.0484L35.2959 20.5782Z" fill="url(#paint3_linear_1210_8202)"/>
<path opacity="0.2" d="M35.1657 31.3882L16.2804 42.0681C15.2385 42.7193 14.3268 42.5891 13.6756 42.0681L13.5453 42.1984L13.6756 42.3286C14.3268 42.8496 15.2385 42.9798 16.2804 42.3286L35.1657 31.3882Z" fill="black"/>
<path opacity="0.12" d="M13.5453 42.0683C13.1546 41.6775 13.0243 41.0263 13.0243 40.2449V40.3751C13.0243 41.1566 13.2848 41.8078 13.6755 42.1985V42.0683H13.5453ZM41.6778 27.7415L35.1657 31.3883L35.2959 31.5186L41.6778 27.8717C42.5895 27.3508 42.9803 26.6996 42.9803 26.0483C42.9803 26.6996 42.4593 27.2205 41.6778 27.7415Z" fill="black"/>
<path opacity="0.25" d="M16.2804 9.89835L41.6778 24.3553C42.4593 24.8763 42.9803 25.3973 42.9803 26.0485C42.9803 25.3973 42.5895 24.7461 41.6778 24.2251L16.2804 9.7681C14.457 8.72616 13.0243 9.50762 13.0243 11.5915V11.7218C13.0243 9.7681 14.457 8.8564 16.2804 9.89835Z" fill="white"/>
<defs>
<linearGradient id="paint0_linear_1210_8202" x1="28.393" y1="11.3435" x2="6.5343" y2="33.2009" gradientUnits="userSpaceOnUse">
<stop stop-color="#00A0FF"/>
<stop offset="0.007" stop-color="#00A1FF"/>
<stop offset="0.26" stop-color="#00BEFF"/>
<stop offset="0.512" stop-color="#00D2FF"/>
<stop offset="0.76" stop-color="#00DFFF"/>
<stop offset="1" stop-color="#00E3FF"/>
</linearGradient>
<linearGradient id="paint1_linear_1210_8202" x1="44.0665" y1="26.0496" x2="12.5516" y2="26.0496" gradientUnits="userSpaceOnUse">
<stop stop-color="#FFE000"/>
<stop offset="0.409" stop-color="#FFBD00"/>
<stop offset="0.775" stop-color="#FFA500"/>
<stop offset="1" stop-color="#FF9C00"/>
</linearGradient>
<linearGradient id="paint2_linear_1210_8202" x1="32.3355" y1="29.0387" x2="2.69476" y2="58.6795" gradientUnits="userSpaceOnUse">
<stop stop-color="#FF3A44"/>
<stop offset="1" stop-color="#C31162"/>
</linearGradient>
<linearGradient id="paint3_linear_1210_8202" x1="9.50387" y1="0.228971" x2="22.7405" y2="13.4656" gradientUnits="userSpaceOnUse">
<stop stop-color="#32A071"/>
<stop offset="0.069" stop-color="#2DA771"/>
<stop offset="0.476" stop-color="#15CF74"/>
<stop offset="0.801" stop-color="#06E775"/>
<stop offset="1" stop-color="#00F076"/>
</linearGradient>
</defs>
</svg>
