<svg width="115" height="115" viewBox="0 0 115 115" fill="none" xmlns="http://www.w3.org/2000/svg">
<g clip-path="url(#clip0_1210_8320)">
<path d="M23 11.5H11.5V23H23V11.5Z" fill="black"/>
<path d="M80.5 0V5.75H74.75V11.5H80.5V34.5H86.25V40.25H80.5V46H86.25H92V34.5H109.25V40.25H115V34.5V0H80.5ZM109.25 28.75H86.25V5.75H109.25V28.75Z" fill="black"/>
<path d="M103.5 11.5H92V23H103.5V11.5Z" fill="black"/>
<path d="M23 92H11.5V103.5H23V92Z" fill="black"/>
<path d="M86.25 80.5H80.5V86.25H86.25V80.5Z" fill="black"/>
<path d="M57.5 109.25H51.75V115H57.5V109.25Z" fill="black"/>
<path d="M63.25 86.25H57.5V92H63.25V86.25Z" fill="black"/>
<path d="M63.25 97.75H57.5V103.5H63.25V97.75Z" fill="black"/>
<path d="M115 69H109.25V74.75H115V69Z" fill="black"/>
<path d="M5.75 69H0V74.75H5.75V69Z" fill="black"/>
<path d="M5.75 40.25H0V46H5.75V40.25Z" fill="black"/>
<path d="M63.25 5.75V11.5H51.75V17.25H69V11.5V5.75H63.25Z" fill="black"/>
<path d="M109.25 46V51.75H97.75V57.5H80.5V51.75H74.75V57.5H63.25V63.25H80.5V69H69H63.25V63.25H57.5V69H51.75V63.25H46V69H40.25V74.75H51.75V80.5H57.5V74.75H69V80.5H63.25V86.25H69V97.75H74.75V103.5H80.5V97.75H97.75V86.25H103.5V80.5H97.75V69H86.25V63.25H97.75V69H103.5V63.25H109.25V57.5H115V51.75V46H109.25ZM92 74.75V92H74.75V74.75H92Z" fill="black"/>
<path d="M74.75 34.5H69V40.25H63.25V46V51.75H69V46H74.75V40.25H80.5V34.5H74.75Z" fill="black"/>
<path d="M74.75 109.25H63.25V115H74.75V109.25Z" fill="black"/>
<path d="M51.75 5.75H46V11.5H51.75V5.75Z" fill="black"/>
<path d="M97.75 46H92V51.75H97.75V46Z" fill="black"/>
<path d="M103.5 40.25H97.75V46H103.5V40.25Z" fill="black"/>
<path d="M28.75 69H23V74.75H28.75V69Z" fill="black"/>
<path d="M34.5 109.25V86.25H40.25V80.5V74.75H34.5V80.5H17.25V74.75H11.5H5.75V80.5H0V115H34.5H46V109.25H34.5ZM28.75 109.25H5.75V86.25H28.75V109.25Z" fill="black"/>
<path d="M40.25 34.5H34.5V40.25H40.25V34.5Z" fill="black"/>
<path d="M40.25 0H34.5H0V34.5H5.75V40.25H11.5V34.5H17.25V40.25H23V34.5H34.5V23H40.25V17.25H34.5V5.75H40.25H46V0H40.25ZM28.75 28.75H5.75V5.75H28.75V28.75Z" fill="black"/>
<path d="M74.75 17.25H69V23H74.75V17.25Z" fill="black"/>
<path d="M63.25 0H57.5V5.75H63.25V0Z" fill="black"/>
<path d="M69 34.5V28.75H63.25V23H57.5V28.75H46V23H40.25V28.75V34.5H46V46H28.75V40.25H23V46H5.75V51.75H17.25V57.5H0V63.25H17.25V69H23V63.25H28.75V69H34.5V63.25H46V57.5H40.25V51.75H46H51.75V57.5H57.5H63.25V51.75H57.5V46H51.75V34.5H69ZM34.5 57.5H23V51.75H34.5V57.5Z" fill="black"/>
<path d="M51.75 92V86.25V80.5H46V86.25H40.25V92H46V97.75H40.25V103.5H51.75V97.75H57.5V92H51.75Z" fill="black"/>
<path d="M103.5 103.5V97.75H97.75V103.5H80.5V109.25H92V115H97.75V109.25H109.25V115H115V109.25V103.5H103.5Z" fill="black"/>
<path d="M109.25 80.5V86.25H103.5V92H115V86.25V80.5H109.25Z" fill="black"/>
</g>
<defs>
<clipPath id="clip0_1210_8320">
<rect width="115" height="115" fill="white"/>
</clipPath>
</defs>
</svg>
