<svg width="184" height="184" viewBox="0 0 184 184" fill="none" xmlns="http://www.w3.org/2000/svg">
<path d="M161 40.25V80.5C161 118.393 142.658 141.357 127.269 153.949C110.695 167.505 94.2066 172.112 93.4878 172.299C92.4995 172.568 91.4574 172.568 90.4691 172.299C89.7503 172.112 73.2838 167.505 56.6878 153.949C41.3425 141.357 23 118.393 23 80.5V40.25C23 37.2 24.2116 34.2749 26.3683 32.1183C28.5249 29.9616 31.45 28.75 34.5 28.75H149.5C152.55 28.75 155.475 29.9616 157.632 32.1183C159.788 34.2749 161 37.2 161 40.25Z" fill="url(#paint0_linear_1293_6912)"/>
<mask id="mask0_1293_6912" style="mask-type:alpha" maskUnits="userSpaceOnUse" x="11" y="69" width="158" height="53">
<path d="M18.4201 120.424L24.9754 83.2502H11.7448L14.2031 69.1802H76.0991L73.6408 83.2502H43.3823L36.827 120.424H18.4201Z" fill="white"/>
<path d="M69.1443 121.323C61.5497 121.323 55.7339 120.124 51.6768 117.706C47.6197 115.307 45.6011 111.43 45.6011 106.114C45.6011 105.414 45.6411 104.655 45.741 103.836C45.8409 103.016 46.0208 101.917 46.2606 100.518H63.6083C63.4084 101.617 63.2885 102.377 63.2286 102.796C63.1886 103.216 63.1486 103.576 63.1486 103.876C63.1486 105.554 63.6682 106.773 64.7075 107.493C65.7468 108.212 67.2457 108.572 69.1843 108.572C71.8225 108.572 73.841 107.973 75.3 106.753C76.739 105.534 77.6983 103.496 78.1979 100.618L83.714 69.1802H102.181L96.6048 100.678C95.7055 105.734 94.0667 109.791 91.6484 112.809C89.2301 115.847 86.1523 118.005 82.375 119.325C78.5977 120.644 74.1808 121.303 69.1244 121.303L69.1443 121.323Z" fill="white"/>
<path d="M100.582 120.424L109.595 69.1802H152.505C156.182 69.1802 159.2 69.8197 161.558 71.0788C163.917 72.3379 165.676 74.0367 166.855 76.1752C168.014 78.3137 168.613 80.672 168.613 83.2502C168.613 86.0282 168.174 88.6464 167.274 91.0646C166.375 93.5029 165.076 95.6414 163.317 97.5001C161.578 99.3587 159.42 100.838 156.842 101.937L163.477 120.404H143.511L138.595 104.395H121.827L118.989 120.404H100.582V120.424ZM124.045 91.6842H143.551C144.551 91.6842 145.49 91.4444 146.389 90.9847C147.289 90.505 148.008 89.8455 148.588 88.9661C149.167 88.0867 149.447 87.0475 149.447 85.8084C149.447 84.5692 149.067 83.55 148.288 82.9104C147.508 82.2709 146.509 81.9511 145.27 81.9511H125.764L124.045 91.7042V91.6842Z" fill="white"/>
</mask>
<g mask="url(#mask0_1293_6912)">
<path d="M172.506 134.773H3.40595C-1.07087 134.773 -4.50844 130.776 -3.82893 126.339L6.00411 61.9451C6.54373 58.3676 9.62153 55.7295 13.239 55.7295H158.536C175.544 55.7295 188.554 70.8787 185.976 87.6868L179.741 128.558C179.201 132.135 176.123 134.773 172.506 134.773Z" fill="url(#paint1_linear_1293_6912)"/>
</g>
<defs>
<linearGradient id="paint0_linear_1293_6912" x1="92" y1="28.75" x2="92" y2="172.5" gradientUnits="userSpaceOnUse">
<stop stop-color="#D9D9D9"/>
<stop offset="1" stop-color="#F3BBB0"/>
</linearGradient>
<linearGradient id="paint1_linear_1293_6912" x1="13.7022" y1="126.255" x2="169.319" y2="68.5102" gradientUnits="userSpaceOnUse">
<stop stop-color="#68FFFF"/>
<stop offset="0.26" stop-color="#0065AA"/>
<stop offset="0.71" stop-color="#AF6162"/>
<stop offset="1" stop-color="#FFB06A"/>
</linearGradient>
</defs>
</svg>
