<svg width="190" height="34" viewBox="0 0 190 34" fill="none" xmlns="http://www.w3.org/2000/svg">
<path d="M66.292 29.7016H2.75087C1.06866 29.7016 -0.223047 28.1996 0.032289 26.5324L3.72716 2.33557C3.92993 0.991305 5.08645 0 6.44573 0H61.0426C67.4335 0 72.3224 5.69249 71.3536 12.0083L69.0106 27.366C68.8078 28.7103 67.6513 29.7016 66.292 29.7016Z" fill="url(#paint0_linear_1180_6137)"/>
<path d="M9.65246 24.3095L12.1157 10.3411H7.14415L8.06787 5.05415H31.326L30.4023 10.3411H19.0323L16.5691 24.3095H9.65246Z" fill="white"/>
<path d="M28.7125 24.6474C25.8588 24.6474 23.6734 24.1968 22.1489 23.2881C20.6244 22.387 19.8659 20.93 19.8659 18.9324C19.8659 18.6696 19.8809 18.3842 19.9185 18.0763C19.956 17.7684 20.0236 17.3553 20.1137 16.8296H26.6323C26.5572 17.2427 26.5121 17.5281 26.4896 17.6858C26.4746 17.8435 26.4596 17.9787 26.4596 18.0913C26.4596 18.7221 26.6548 19.1802 27.0453 19.4506C27.4358 19.7209 27.9991 19.8561 28.7276 19.8561C29.7189 19.8561 30.4774 19.6308 31.0256 19.1727C31.5663 18.7146 31.9268 17.9486 32.1145 16.8672L34.1872 5.05415H41.1264L39.0311 16.8897C38.6932 18.7897 38.0774 20.3142 37.1687 21.4482C36.26 22.5897 35.1034 23.4008 33.6841 23.8964C32.2647 24.3921 30.605 24.6399 28.705 24.6399L28.7125 24.6474Z" fill="white"/>
<path d="M40.5256 24.3095L43.9125 5.05415H60.0362C61.4181 5.05415 62.5521 5.29447 63.4382 5.76759C64.3244 6.24071 64.9853 6.87905 65.4283 7.6826C65.8639 8.48616 66.0892 9.37233 66.0892 10.3411C66.0892 11.385 65.924 12.3688 65.5861 13.2775C65.2481 14.1937 64.76 14.9972 64.0991 15.6957C63.4457 16.3941 62.6347 16.9498 61.6659 17.3628L64.1592 24.302H56.6568L54.8094 18.2866H48.5086L47.4422 24.302H40.5256V24.3095ZM49.3422 13.5103H56.6718C57.0473 13.5103 57.4003 13.4202 57.7382 13.2474C58.0762 13.0672 58.3465 12.8194 58.5643 12.4889C58.7821 12.1585 58.8872 11.768 58.8872 11.3024C58.8872 10.8368 58.7445 10.4538 58.4517 10.2134C58.1588 9.97312 57.7833 9.85296 57.3177 9.85296H49.988L49.3422 13.5178V13.5103Z" fill="white"/>
<g clip-path="url(#clip0_1180_6137)">
<path d="M83.3091 25.2239C81.2405 25.2239 79.6541 24.5701 78.5501 23.2624C77.4461 21.9548 77.0924 20.1434 77.5105 17.8282L78.9896 9.86444H75.0988L75.7526 6.1666H79.6756L80.1365 3.76568H84.2952L83.8343 6.1666H89.2364L88.5504 9.86444H83.1483L81.6478 18.1283C81.2833 20.3685 82.2158 21.4939 84.456 21.4939C85.1312 21.4939 85.7958 21.4082 86.4496 21.2259L85.7958 24.9238C85.0455 25.1274 84.2202 25.2239 83.3091 25.2239Z" fill="#414042"/>
<path d="M97.6932 25.4168C95.0993 25.4168 92.9664 24.5701 91.2836 22.8873C89.6008 21.2045 88.7219 19.0715 88.6468 16.5098C88.5611 13.4337 89.4614 10.8827 91.3586 8.84618C93.2558 6.80968 95.7853 5.79144 98.9579 5.79144C101.852 5.79144 104.167 6.77753 105.893 8.76043C107.618 10.7326 108.24 13.3586 107.758 16.6277H92.6126C92.7091 18.1605 93.2343 19.4038 94.2097 20.347C95.1851 21.2902 96.3962 21.7618 97.8539 21.7618C100.244 21.7618 101.905 20.8829 102.838 19.1144H107.254C105.635 23.316 102.441 25.4168 97.6824 25.4168H97.6932ZM98.6471 9.25348C97.318 9.25348 96.1176 9.63934 95.0564 10.4111C93.9953 11.1828 93.2986 12.2653 92.9556 13.6802H103.567C103.449 12.2761 102.945 11.1828 102.056 10.4111C101.166 9.63934 100.03 9.25348 98.6471 9.25348Z" fill="#414042"/>
<path d="M119.227 25.4168C116.633 25.4168 114.5 24.5701 112.817 22.8873C111.134 21.2045 110.255 19.0715 110.18 16.5098C110.094 13.4337 110.995 10.8827 112.892 8.84618C114.789 6.80968 117.319 5.79144 120.491 5.79144C123.385 5.79144 125.7 6.77753 127.426 8.76043C129.152 10.7326 129.773 13.3586 129.291 16.6277H114.146C114.242 18.1605 114.768 19.4038 115.743 20.347C116.718 21.2902 117.93 21.7618 119.387 21.7618C121.778 21.7618 123.439 20.8829 124.371 19.1144H128.787C127.169 23.316 123.975 25.4168 119.216 25.4168H119.227ZM120.17 9.25348C118.841 9.25348 117.64 9.63934 116.579 10.4111C115.518 11.1828 114.821 12.2653 114.478 13.6802H125.089C124.972 12.2761 124.468 11.1828 123.578 10.4111C122.689 9.63934 121.552 9.25348 120.17 9.25348Z" fill="#414042"/>
<path d="M127.222 33.3056C126.344 33.3056 125.625 33.2305 125.068 33.0805L125.722 29.4577C126.001 29.5541 126.429 29.6077 127.008 29.6077C128.82 29.6077 129.902 28.6002 130.245 26.5851L134.018 6.15586H138.177L134.275 27.3033C133.879 29.4148 133.118 30.9475 131.992 31.8907C130.856 32.8339 129.27 33.3056 127.233 33.3056H127.222Z" fill="#414042"/>
<path d="M146.601 25.3847C144.361 25.3847 142.485 24.5915 140.963 23.0052C139.441 21.4189 138.648 19.3824 138.584 16.885C138.498 13.7124 139.388 11.0649 141.274 8.95338C143.15 6.84186 145.604 5.78074 148.627 5.78074C150.106 5.78074 151.435 6.13445 152.582 6.84186C153.74 7.54927 154.522 8.33172 154.951 9.17847L155.508 6.15588H159.667L156.194 25.031H152.035L152.432 22.9945C151.875 23.7019 151.081 24.27 150.042 24.7094C149.013 25.1489 147.866 25.374 146.601 25.374V25.3847ZM147.705 21.719C149.538 21.719 151.071 21.0545 152.293 19.7361C153.514 18.4177 154.093 16.7457 154.04 14.7306C153.997 13.0907 153.525 11.8259 152.646 10.9148C151.767 10.0038 150.567 9.55361 149.056 9.55361C147.244 9.55361 145.722 10.2182 144.5 11.5365C143.278 12.8549 142.7 14.5269 142.753 16.542C142.796 18.1819 143.268 19.4467 144.147 20.3578C145.025 21.2581 146.205 21.719 147.694 21.719H147.705Z" fill="#414042"/>
<path d="M171.661 5.97366C170.471 5.97366 169.367 6.25234 168.36 6.8097C167.341 7.35634 166.57 8.16022 166.044 9.22134L166.645 6.16659H162.486L159.013 25.0417H163.161L164.833 15.8346C165.187 14.0232 165.894 12.5976 166.955 11.5794C167.792 10.7862 168.703 10.3039 169.667 10.1324C170.171 9.16774 170.814 8.27812 171.586 7.4528C172.057 6.94904 172.561 6.49886 173.108 6.10228C172.701 6.01654 172.218 5.97366 171.661 5.97366Z" fill="#414042"/>
<path d="M179.646 25.4597C176.774 25.4597 174.523 24.5701 172.872 22.8015C171.221 21.0223 170.364 18.8786 170.289 16.3598C170.203 13.3694 171.114 10.8505 173.022 8.82476C174.93 6.79899 177.47 5.78074 180.643 5.78074C183.515 5.78074 185.766 6.65965 187.417 8.42818C189.068 10.186 189.925 12.3297 189.989 14.8485C190.075 17.8389 189.164 20.3578 187.278 22.405C185.38 24.4415 182.84 25.4597 179.646 25.4597ZM179.882 21.5689C181.618 21.5689 183.055 20.9473 184.191 19.7147C185.327 18.482 185.874 16.9707 185.82 15.1808C185.777 13.4658 185.263 12.1153 184.287 11.1185C183.312 10.1217 182.026 9.62864 180.418 9.62864C178.681 9.62864 177.245 10.2503 176.131 11.4829C175.005 12.7155 174.469 14.2268 174.523 16.0168C174.566 17.7532 175.08 19.1144 176.055 20.0898C177.031 21.0652 178.306 21.5582 179.893 21.5582L179.882 21.5689Z" fill="#414042"/>
</g>
<defs>
<linearGradient id="paint0_linear_1180_6137" x1="-0.846367" y1="28.4474" x2="71.3086" y2="2.08774" gradientUnits="userSpaceOnUse">
<stop stop-color="#68FFFF"/>
<stop offset="0.26" stop-color="#0065AA"/>
<stop offset="0.71" stop-color="#AF6162"/>
<stop offset="1" stop-color="#FFB06A"/>
</linearGradient>
<clipPath id="clip0_1180_6137">
<rect width="114.901" height="29.5506" fill="white" transform="translate(75.0988 3.75494)"/>
</clipPath>
</defs>
</svg>
