<svg width="63" height="26" viewBox="0 0 63 26" fill="none" xmlns="http://www.w3.org/2000/svg">
<path d="M57.8282 25.9084H2.40261C0.930939 25.9084 -0.192648 24.5998 0.0276622 23.1458L3.24859 2.04007C3.42925 0.868023 4.43827 0 5.62354 0H53.2501C58.824 0 63.0892 4.96579 62.2476 10.4735L60.2031 23.8684C60.0225 25.0404 59.0134 25.9084 57.8282 25.9084Z" fill="url(#paint0_linear_1293_6921)"/>
<path d="M8.4214 21.2071L10.5716 9.02393H6.23151L7.03785 4.41064H27.3284L26.522 9.02393H16.6037L14.4535 21.2071H8.4214Z" fill="white"/>
<path d="M25.0505 21.5023C22.561 21.5023 20.6531 21.1101 19.3268 20.317C18.0005 19.5283 17.3352 18.2637 17.3352 16.5189C17.3352 16.2898 17.3528 16.043 17.3837 15.7742C17.4145 15.5055 17.4718 15.1442 17.5555 14.6859H23.2439C23.1778 15.0428 23.1382 15.294 23.1205 15.4306C23.1029 15.5672 23.0985 15.6861 23.0985 15.7831C23.0985 16.3382 23.2704 16.7304 23.6096 16.9683C23.9533 17.2063 24.438 17.3208 25.0725 17.3208C25.9361 17.3208 26.6014 17.1225 27.0729 16.7216C27.5444 16.325 27.8616 15.6509 28.0246 14.7079L29.8312 4.40625H35.8853L34.0523 14.7344C33.7571 16.3955 33.2196 17.7218 32.4264 18.7132C31.6377 19.7046 30.6243 20.4184 29.3861 20.8502C28.148 21.282 26.6984 21.4979 25.0416 21.4979L25.0505 21.5023Z" fill="white"/>
<path d="M35.3523 21.2071L38.3044 4.41064H52.369C53.5719 4.41064 54.5633 4.61773 55.3344 5.03191C56.1054 5.4461 56.6871 6.00568 57.066 6.70627C57.4493 7.40686 57.6388 8.17794 57.6388 9.02393C57.6388 9.93601 57.4934 10.7908 57.1982 11.5883C56.9074 12.3859 56.4756 13.0909 55.9028 13.6989C55.3344 14.3114 54.625 14.7916 53.779 15.153L55.9512 21.2071H49.408L47.7954 15.9593H42.3008L41.3755 21.2071H35.3434H35.3523ZM43.0411 11.7822H49.4389C49.7649 11.7822 50.0734 11.7029 50.3642 11.5487C50.6594 11.3945 50.8973 11.1742 51.0824 10.8878C51.2674 10.6014 51.3644 10.2577 51.3644 9.8523C51.3644 9.44693 51.2366 9.11205 50.9854 8.90056C50.7343 8.68906 50.4038 8.58331 49.9985 8.58331H43.6007L43.0411 11.7822Z" fill="white"/>
<defs>
<linearGradient id="paint0_linear_1293_6921" x1="-0.739016" y1="24.8157" x2="62.2035" y2="1.81976" gradientUnits="userSpaceOnUse">
<stop stop-color="#68FFFF"/>
<stop offset="0.26" stop-color="#0065AA"/>
<stop offset="0.71" stop-color="#AF6162"/>
<stop offset="1" stop-color="#FFB06A"/>
</linearGradient>
</defs>
</svg>
