<svg width="81" height="34" viewBox="0 0 81 34" fill="none" xmlns="http://www.w3.org/2000/svg">
<path d="M75.121 33.6561H3.12108C1.20933 33.6561 -0.250257 31.9561 0.0359342 30.0672L4.22004 2.65013C4.45472 1.12759 5.76548 0 7.30519 0H69.174C76.4146 0 81.9552 6.45075 80.862 13.6055L78.2061 31.0059C77.9714 32.5285 76.6607 33.6561 75.121 33.6561Z" fill="#CECECE"/>
<path d="M10.9398 27.5491L13.733 11.7227H8.09504L9.14251 5.72992H35.5007L34.4532 11.7227H21.5689L18.7757 27.5491H10.9398Z" fill="white"/>
<path d="M32.5416 27.9322C29.3076 27.9322 26.8292 27.4228 25.1063 26.3925C23.3834 25.368 22.5191 23.7252 22.5191 21.4586C22.5191 21.161 22.542 20.8404 22.5821 20.4913C22.6222 20.1421 22.6966 19.6728 22.8053 19.0775H30.1948C30.1089 19.5411 30.0574 19.8674 30.0345 20.0448C30.0116 20.2222 30.0059 20.3768 30.0059 20.5027C30.0059 21.2239 30.2291 21.7333 30.6699 22.0424C31.1163 22.3515 31.7459 22.5003 32.5702 22.5003C33.692 22.5003 34.5563 22.2428 35.1688 21.7219C35.7812 21.2067 36.1933 20.331 36.4051 19.1061L38.7519 5.72382H46.6164L44.2353 19.1404C43.8518 21.2983 43.1535 23.0212 42.1232 24.3091C41.0987 25.5969 39.7822 26.5242 38.1738 27.0851C36.5654 27.646 34.6823 27.9265 32.5301 27.9265L32.5416 27.9322Z" fill="white"/>
<path d="M45.924 27.5486L49.7589 5.72943H68.0294C69.592 5.72943 70.8798 5.99844 71.8815 6.53648C72.8832 7.07452 73.6387 7.80145 74.131 8.71154C74.6289 9.62162 74.875 10.6233 74.875 11.7223C74.875 12.9071 74.6862 14.0175 74.3027 15.0535C73.9249 16.0895 73.364 17.0053 72.6199 17.7952C71.8815 18.5908 70.9599 19.2147 69.861 19.6841L72.6828 27.5486H64.183L62.0881 20.7316H54.9504L53.7484 27.5486H45.9125H45.924ZM55.912 15.3054H64.223C64.6466 15.3054 65.0472 15.2023 65.425 15.002C65.8085 14.8017 66.1176 14.5155 66.358 14.1434C66.5984 13.7714 66.7243 13.3249 66.7243 12.7983C66.7243 12.2718 66.5583 11.8367 66.2321 11.562C65.9058 11.2873 65.4766 11.1499 64.95 11.1499H56.639L55.912 15.3054Z" fill="white"/>
</svg>
