<svg width="57" height="57" viewBox="0 0 57 57" fill="none" xmlns="http://www.w3.org/2000/svg">
<circle cx="28.1691" cy="28.1691" r="23" transform="rotate(15 28.1691 28.1691)" fill="#EC0024"/>
<g clip-path="url(#clip0_1221_10633)">
<path d="M41.9509 29.8449C41.9754 29.7535 41.9754 29.7535 42.0669 29.778C42.0669 29.778 42.0669 29.778 42.0914 29.6865C42.0914 29.6865 42.0914 29.6865 42.116 29.595C42.116 29.595 42.116 29.595 42.1405 29.5035C42.1405 29.5035 42.1405 29.5035 42.165 29.4121C42.165 29.4121 42.165 29.4121 42.1895 29.3206C42.1895 29.3206 42.1895 29.3206 42.214 29.2291C42.214 29.2291 42.214 29.2291 42.2385 29.1376C42.2385 29.1376 42.2385 29.1376 42.263 29.0462C42.263 29.0462 42.263 29.0462 42.2875 28.9547L38.6402 23.1731L38.5733 23.0571C38.4818 23.0326 38.4818 23.0326 38.4148 22.9166L19.6962 14.4693L19.6048 14.4448C19.5133 14.4203 19.5133 14.4203 19.4218 14.3958C19.4218 14.3958 19.3303 14.3713 19.3058 14.4628L19.1898 14.5297L19.0738 14.5967L19.0493 14.6882C19.0248 14.7797 19.0248 14.7797 19.0003 14.8711L18.9758 14.9626L22.8908 41.6999C22.8908 41.6999 22.8663 41.7914 22.9578 41.8159L23.0248 41.9319C23.0248 41.9319 23.1163 41.9564 23.0917 42.0479L23.1832 42.0724L23.2747 42.0969L23.3662 42.1214L23.4577 42.1459C23.4577 42.1459 23.4577 42.1459 23.5491 42.1704C23.5491 42.1704 23.6406 42.1949 23.6651 42.1035L41.9509 29.8449ZM20.2906 17.3739L28.5622 28.2184L23.5461 39.6204L20.2906 17.3739ZM40.2929 28.7144L31.3263 27.7824L37.6992 24.4897L40.2929 28.7144ZM29.4722 27.3837L21.3591 16.6797L36.541 23.6891L29.4722 27.3837ZM29.6779 28.8115L39.7913 29.8546L24.6863 40.122L29.6779 28.8115Z" fill="white"/>
</g>
<defs>
<clipPath id="clip0_1221_10633">
<rect width="28.4118" height="28.4118" fill="white" transform="translate(18.2522 12.906) rotate(15)"/>
</clipPath>
</defs>
</svg>
