<svg width="1360" height="600" viewBox="0 0 1360 600" fill="none" xmlns="http://www.w3.org/2000/svg">
<path d="M1611.97 65.8574L1575.43 392.11L1575.41 392.316L1403.83 529.333L1348.23 1025.78L1347.24 1025.67L1402.88 528.809L1403.04 528.681L1574.46 391.793L1610.97 65.7471L1611.97 65.8574ZM1567.95 50.9912L1531.42 377.244L1531.39 377.449L1359.82 514.466L1304.22 1010.91L1303.22 1010.8L1358.87 513.942L1359.03 513.814L1530.44 376.926L1566.96 50.8799L1567.95 50.9912ZM1523.94 36.125L1487.4 362.378L1487.38 362.583L1315.8 499.6L1260.2 996.047L1259.21 995.936L1314.86 499.076L1315.02 498.947L1486.43 362.06L1522.95 36.0137L1523.94 36.125ZM1479.93 21.2578L1443.39 347.511L1443.37 347.717L1271.79 484.733L1216.19 981.181L1215.2 981.068L1270.84 484.209L1271.01 484.081L1442.42 347.193L1478.94 21.1475L1479.93 21.2578ZM1435.92 6.3916L1399.38 332.645L1399.35 332.85L1227.78 469.866L1172.18 966.314L1171.19 966.202L1226.83 469.343L1226.99 469.215L1398.41 332.326L1434.92 6.28027L1435.92 6.3916ZM1391.9 -8.47461L1355.37 317.778L1355.34 317.983L1183.77 455L1128.17 951.447L1127.17 951.336L1182.82 454.477L1182.98 454.348L1354.39 317.46L1390.91 -8.58594L1391.9 -8.47461ZM1347.89 -23.3408L1311.35 302.912L1311.33 303.117L1139.75 440.134L1084.15 936.581L1083.16 936.47L1138.81 439.609L1138.97 439.481L1310.38 302.594L1346.9 -23.4521L1347.89 -23.3408ZM1303.88 -38.208L1267.34 288.045L1267.32 288.251L1095.74 425.268L1040.14 921.715L1039.15 921.603L1094.79 424.743L1094.96 424.615L1266.37 287.728L1302.88 -38.3184L1303.88 -38.208ZM1259.87 -53.0742L1223.33 273.179L1223.3 273.384L1051.73 410.4L996.129 906.848L995.136 906.736L1050.78 409.877L1050.94 409.748L1222.36 272.86L1258.87 -53.1855L1259.87 -53.0742ZM1216.75 -58.0986L1180.21 268.154L1180.18 268.359L1008.61 405.376L953.008 901.823L952.015 901.712L1007.66 404.852L1007.82 404.724L1179.24 267.836L1215.75 -58.21L1216.75 -58.0986ZM1172.73 -72.9658L1136.19 253.287L1136.17 253.493L964.595 390.51L908.995 886.957L908.002 886.845L963.646 389.985L963.81 389.857L1135.22 252.97L1171.74 -73.0762L1172.73 -72.9658ZM1128.72 -87.832L1092.18 238.421L1092.16 238.626L920.582 375.643L864.982 872.09L863.989 871.979L919.635 375.119L919.797 374.99L1091.21 238.103L1127.73 -87.9434L1128.72 -87.832ZM1084.71 -102.698L1048.17 223.555L1048.15 223.76L876.569 360.776L820.97 857.224L819.977 857.112L875.622 360.252L875.784 360.124L1047.2 223.236L1083.71 -102.81L1084.71 -102.698ZM1040.7 -117.564L1004.16 208.688L1004.13 208.894L832.557 345.91L776.957 842.357L775.964 842.246L831.609 345.386L831.771 345.258L1003.19 208.37L1039.7 -117.676L1040.7 -117.564ZM996.683 -132.432L960.145 193.821L960.121 194.026L788.544 331.043L732.945 827.49L731.952 827.379L787.597 330.52L787.759 330.391L959.173 193.503L995.689 -132.543L996.683 -132.432ZM952.67 -147.298L916.132 178.955L916.108 179.16L744.531 316.177L688.933 812.624L687.939 812.513L743.584 315.653L743.746 315.524L915.16 178.637L951.677 -147.409L952.67 -147.298ZM908.658 -162.164L872.119 164.089L872.096 164.294L700.52 301.311L644.92 797.758L643.927 797.646L699.571 300.786L699.734 300.658L871.147 163.771L907.664 -162.275L908.658 -162.164ZM864.646 -177.031L828.106 149.222L828.083 149.427L656.507 286.443L600.907 782.892L599.914 782.779L655.56 285.92L655.722 285.792L827.135 148.903L863.651 -177.143L864.646 -177.031ZM821.524 -182.056L784.985 144.197L784.962 144.402L613.386 281.419L557.786 777.866L556.793 777.755L612.438 280.896L612.601 280.767L784.014 143.879L820.53 -182.167L821.524 -182.056ZM777.512 -196.923L740.973 129.33L740.949 129.536L569.373 266.553L513.773 763L512.78 762.888L568.426 266.028L568.588 265.9L740.001 129.013L776.518 -197.033L777.512 -196.923ZM733.499 -211.789L696.961 114.464L696.938 114.669L525.36 251.686L469.762 748.134L468.769 748.021L524.413 251.162L524.575 251.034L695.989 114.146L732.506 -211.9L733.499 -211.789ZM689.486 -226.655L652.948 99.5977L652.925 99.8027L481.348 236.819L425.749 733.267L424.756 733.155L480.4 236.296L480.562 236.167L651.977 99.2793L688.493 -226.767L689.486 -226.655ZM645.475 -241.521L608.936 84.7314L608.912 84.9365L437.336 221.953L381.736 718.4L380.743 718.289L436.388 221.429L436.551 221.301L607.964 84.4131L644.48 -241.633L645.475 -241.521ZM601.462 -256.389L564.923 69.8643L564.899 70.0703L393.323 207.087L337.724 703.534L336.73 703.422L392.376 206.562L392.538 206.435L563.951 69.5469L600.468 -256.499L601.462 -256.389ZM557.449 -271.255L520.91 54.998L520.888 55.2031L349.311 192.22L293.711 688.667L292.718 688.556L348.363 191.696L348.525 191.567L519.939 54.6797L556.455 -271.366L557.449 -271.255ZM513.437 -286.121L476.898 40.1318L476.875 40.3369L305.298 177.354L249.699 673.801L248.706 673.689L304.351 176.83L304.513 176.701L475.927 39.8135L512.443 -286.232L513.437 -286.121ZM469.424 -300.987L432.886 25.2656L432.862 25.4707L261.285 162.487L205.687 658.935L204.693 658.823L260.338 161.963L260.5 161.835L431.914 24.9473L468.431 -301.099L469.424 -300.987ZM426.303 -306.013L389.765 20.2402L389.741 20.4453L218.164 157.462L162.565 653.909L161.572 653.798L217.217 156.938L217.379 156.81L388.793 19.9219L425.31 -306.124L426.303 -306.013ZM382.291 -320.879L345.752 5.37402L345.729 5.5791L174.151 142.596L118.553 639.043L117.56 638.932L173.204 142.072L173.367 141.943L344.78 5.05566L381.297 -320.99L382.291 -320.879ZM338.278 -335.746L301.739 -9.49316L301.716 -9.28711L130.14 127.729L74.54 624.177L73.5469 624.064L129.192 127.205L129.354 127.077L300.768 -9.81055L337.284 -335.856L338.278 -335.746ZM294.266 -350.612L257.727 -24.3594L257.703 -24.1543L86.127 112.862L30.5273 609.31L29.5342 609.198L85.1797 112.339L85.3418 112.21L256.755 -24.6777L293.271 -350.724L294.266 -350.612ZM250.253 -365.479L213.714 -39.2256L213.691 -39.0205L42.1143 97.9961L-13.4854 594.443L-14.4785 594.332L41.167 97.4727L41.3291 97.3438L212.743 -39.5439L249.259 -365.59L250.253 -365.479ZM206.24 -380.345L169.702 -54.0918L169.679 -53.8867L-1.89844 83.1299L-57.4971 579.577L-58.4902 579.466L-2.8457 82.6055L-2.68359 82.4775L168.73 -54.4102L205.247 -380.456L206.24 -380.345ZM162.229 -395.212L125.689 -68.959L125.666 -68.7539L-45.9111 68.2627L-101.51 564.711L-102.503 564.599L-46.8584 67.7393L-46.6953 67.6113L124.718 -69.2773L161.234 -395.323L162.229 -395.212ZM118.216 -410.078L81.6768 -83.8252L81.6533 -83.6201L-89.9229 53.3965L-145.522 549.844L-146.516 549.732L-90.8711 52.873L-90.708 52.7441L80.7051 -84.1436L117.222 -410.189L118.216 -410.078ZM74.2031 -424.944L37.6641 -98.6914L37.6406 -98.4863L-133.936 38.5303L-189.535 534.978L-190.528 534.866L-134.883 38.0068L-134.721 37.8779L36.6924 -99.0098L73.209 -425.056L74.2031 -424.944Z" fill="url(#paint0_linear_1220_9550)"/>
<defs>
<linearGradient id="paint0_linear_1220_9550" x1="-79" y1="576" x2="1443.5" y2="-72" gradientUnits="userSpaceOnUse">
<stop stop-color="#666666" stop-opacity="0.1"/>
<stop offset="1"/>
</linearGradient>
</defs>
</svg>
